<svg width="200" height="200" viewBox="0 0 200 200" fill="none" xmlns="http://www.w3.org/2000/svg">
<path d="M166.667 16.6666H58.3334C35.3584 16.6666 16.6667 35.3583 16.6667 58.3333V141.667C16.6667 164.642 35.3584 183.333 58.3334 183.333H158.333C172.117 183.333 183.333 172.117 183.333 158.333C183.333 144.55 172.117 133.333 158.333 133.333H50V150H158.333C160.543 150 162.663 150.878 164.226 152.441C165.789 154.004 166.667 156.123 166.667 158.333C166.667 160.543 165.789 162.663 164.226 164.226C162.663 165.789 160.543 166.667 158.333 166.667H58.3334C44.55 166.667 33.3334 155.45 33.3334 141.667C33.3334 127.883 44.55 116.667 58.3334 116.667H166.667C175.858 116.667 183.333 109.192 183.333 100V33.3333C183.333 24.1416 175.858 16.6666 166.667 16.6666ZM33.3334 108.333H33.3584L33.3334 108.35V108.333Z" fill="white"/>
</svg>
