<svg width="200" height="200" viewBox="0 0 200 200" fill="none" xmlns="http://www.w3.org/2000/svg">
<path d="M183.302 93.702L162.5 62.5V12.5C162.5 9.18479 161.183 6.00537 158.839 3.66117C156.495 1.31696 153.315 0 150 0L137.5 0C135.649 0.000575831 133.84 0.548416 132.3 1.57461L122.534 8.08711C115.865 12.546 108.023 14.9261 100 14.9261C91.9773 14.9261 84.135 12.546 77.4656 8.08711L67.7 1.57461C66.1599 0.548416 64.3507 0.000575831 62.5 0L50 0C46.6848 0 43.5054 1.31696 41.1612 3.66117C38.817 6.00537 37.5 9.18479 37.5 12.5V62.5L16.6984 93.702C13.9608 97.8086 12.5 102.634 12.5 107.569V187.5C12.5 190.815 13.817 193.995 16.1612 196.339C18.5054 198.683 21.6848 200 25 200H87.5V112.5C87.5 111.156 87.7167 109.822 88.1418 108.547L93.4121 92.7344L71.1672 26.0016C79.9642 30.9832 89.8906 33.6284 100 33.6852C110.109 33.6276 120.036 30.9821 128.833 26.0008L100 112.5V200H175C178.315 200 181.495 198.683 183.839 196.339C186.183 193.995 187.5 190.815 187.5 187.5V107.569C187.5 102.634 186.039 97.8086 183.302 93.702ZM63.7937 145.044L45.0437 163.794C43.865 164.932 42.2862 165.562 40.6475 165.548C39.0088 165.534 37.4412 164.876 36.2824 163.718C35.1236 162.559 34.4663 160.991 34.452 159.353C34.4378 157.714 35.0678 156.135 36.2062 154.956L54.9563 136.206C56.135 135.068 57.7138 134.438 59.3525 134.452C60.9912 134.466 62.5588 135.124 63.7176 136.282C64.8764 137.441 65.5337 139.009 65.548 140.647C65.5622 142.286 64.9322 143.865 63.7937 145.044ZM163.794 163.794C163.214 164.374 162.525 164.835 161.767 165.149C161.008 165.463 160.196 165.625 159.375 165.625C158.554 165.625 157.742 165.463 156.983 165.149C156.225 164.835 155.536 164.374 154.956 163.794L136.206 145.044C135.068 143.865 134.438 142.286 134.452 140.647C134.466 139.009 135.124 137.441 136.282 136.282C137.441 135.124 139.009 134.466 140.647 134.452C142.286 134.438 143.865 135.068 145.044 136.206L163.794 154.956C164.374 155.536 164.835 156.225 165.149 156.983C165.463 157.742 165.625 158.554 165.625 159.375C165.625 160.196 165.463 161.008 165.149 161.767C164.835 162.525 164.374 163.214 163.794 163.794Z" fill="white"/>
</svg>
