<svg width="200" height="200" viewBox="0 0 200 200" fill="none" xmlns="http://www.w3.org/2000/svg">
<path fill-rule="evenodd" clip-rule="evenodd" d="M100 56.2499C99.9982 49.4166 101.597 42.6779 104.669 36.5737C107.74 30.4696 112.199 25.1698 117.687 21.099C123.176 17.0282 129.541 14.2997 136.274 13.132C143.007 11.9643 149.92 12.39 156.458 14.3749C157.492 14.688 158.427 15.2635 159.171 16.0453C159.916 16.8272 160.446 17.7887 160.709 18.8361C160.971 19.8835 160.958 20.9811 160.67 22.0219C160.383 23.0627 159.83 24.0112 159.067 24.7749L131.4 52.4333C131.925 56.3916 133.7 60.2166 136.742 63.2583C139.783 66.2999 143.608 68.0749 147.575 68.5916L175.225 40.9333C175.989 40.1699 176.937 39.6174 177.978 39.3296C179.019 39.0419 180.116 39.0287 181.164 39.2914C182.211 39.5541 183.173 40.0837 183.955 40.8285C184.736 41.5734 185.312 42.5081 185.625 43.5416C187.702 50.382 188.071 57.6272 186.7 64.6432C185.328 71.6593 182.259 78.2324 177.759 83.7876C173.26 89.3428 167.468 93.7108 160.89 96.5094C154.311 99.3081 147.148 100.452 140.025 99.8416C131.542 99.1249 124.442 100.675 120.783 105.125L61.2 177.5C58.7603 180.448 55.7319 182.854 52.3087 184.564C48.8855 186.274 45.1429 187.25 41.3205 187.431C37.4982 187.611 33.6803 186.991 30.1114 185.61C26.5426 184.23 23.3013 182.119 20.5952 179.413C17.8891 176.708 15.7778 173.467 14.3965 169.899C13.0152 166.33 12.3943 162.512 12.5736 158.69C12.7529 154.868 13.7285 151.125 15.4378 147.701C17.1471 144.278 19.5525 141.249 22.5 138.808L94.8667 79.2166C99.3083 75.5499 100.867 68.4583 100.15 59.9749C100.048 58.7359 99.998 57.4931 100 56.2499ZM34.3083 159.375C34.3083 157.717 34.9668 156.128 36.1389 154.956C37.311 153.783 38.9007 153.125 40.5583 153.125H40.625C42.2826 153.125 43.8723 153.783 45.0444 154.956C46.2165 156.128 46.875 157.717 46.875 159.375V159.442C46.875 161.099 46.2165 162.689 45.0444 163.861C43.8723 165.033 42.2826 165.692 40.625 165.692H40.5583C38.9007 165.692 37.311 165.033 36.1389 163.861C34.9668 162.689 34.3083 161.099 34.3083 159.442V159.375Z" fill="white"/>
<path d="M83.9667 72L65.625 53.6666V40.6166C65.6249 39.5376 65.3455 38.477 64.814 37.538C64.2824 36.599 63.5168 35.8136 62.5917 35.2583L31.3417 16.5083C30.1464 15.7918 28.7461 15.4953 27.363 15.6659C25.98 15.8365 24.6936 16.4645 23.7083 17.45L17.4583 23.7C16.4729 24.6852 15.8449 25.9716 15.6743 27.3546C15.5037 28.7377 15.8002 30.1381 16.5167 31.3333L35.2667 62.5833C35.822 63.5084 36.6074 64.274 37.5464 64.8056C38.4854 65.3371 39.546 65.6166 40.625 65.6166H53.6583L70.8417 82.7999L83.9667 71.9916V72Z" fill="white"/>
<path fill-rule="evenodd" clip-rule="evenodd" d="M104.633 144.408L139.492 179.258C142.103 181.87 145.204 183.942 148.616 185.355C152.028 186.769 155.686 187.496 159.379 187.496C163.073 187.496 166.73 186.769 170.142 185.355C173.554 183.942 176.655 181.87 179.267 179.258C181.878 176.647 183.95 173.546 185.363 170.134C186.777 166.722 187.504 163.064 187.504 159.371C187.504 155.677 186.777 152.02 185.363 148.608C183.95 145.195 181.878 142.095 179.267 139.483L151.717 111.942C147.494 112.54 143.217 112.661 138.967 112.3C135.683 112.017 133.283 112.25 131.742 112.65C131.254 112.753 130.784 112.93 130.35 113.175L104.633 144.408ZM133.083 133.075C134.255 131.905 135.844 131.247 137.5 131.247C139.156 131.247 140.745 131.905 141.917 133.075L157.542 148.708C158.156 149.28 158.648 149.97 158.99 150.737C159.331 151.504 159.515 152.331 159.53 153.171C159.545 154.01 159.39 154.843 159.076 155.622C158.762 156.4 158.294 157.107 157.7 157.7C157.107 158.294 156.4 158.762 155.622 159.076C154.843 159.39 154.01 159.545 153.171 159.53C152.331 159.515 151.504 159.331 150.737 158.99C149.97 158.648 149.28 158.156 148.708 157.542L133.083 141.917C131.913 140.745 131.255 139.156 131.255 137.5C131.255 135.844 131.913 134.255 133.083 133.083V133.075Z" fill="white"/>
</svg>
