<svg width="200" height="200" viewBox="0 0 200 200" fill="none" xmlns="http://www.w3.org/2000/svg">
<g clip-path="url(#clip0_36_19)">
<path d="M100 11.1111C75.8368 11.1111 56.25 30.6979 56.25 54.8611C56.25 74.3958 84.8437 110 95.7986 122.924C98.0174 125.542 101.986 125.542 104.201 122.924C115.156 110 143.75 74.3958 143.75 54.8611C143.75 30.6979 124.163 11.1111 100 11.1111ZM100 69.4444C91.9444 69.4444 85.4167 62.9166 85.4167 54.8611C85.4167 46.8055 91.9444 40.2777 100 40.2777C108.056 40.2777 114.583 46.8055 114.583 54.8611C114.583 62.9166 108.056 69.4444 100 69.4444ZM6.98611 86.0937C4.92423 86.9184 3.1567 88.3419 1.91149 90.1806C0.66628 92.0194 0.000493822 94.189 0 96.4097L0 183.326C0 187.257 3.96875 189.944 7.61806 188.486L55.5556 166.667V85.7361C52.4861 80.1875 49.9757 74.7847 48.1771 69.618L6.98611 86.0937ZM100 135.997C95.1146 135.997 90.4931 133.851 87.3229 130.108C80.4965 122.052 73.2361 112.878 66.6667 103.469V166.663L133.333 188.885V103.472C126.764 112.878 119.507 122.056 112.677 130.111C109.507 133.851 104.885 135.997 100 135.997ZM192.382 67.0694L144.444 88.8889V188.889L193.014 169.462C195.076 168.637 196.844 167.214 198.089 165.375C199.334 163.536 200 161.367 200 159.146V72.2291C200 68.2986 196.031 65.6111 192.382 67.0694Z" fill="white"/>
</g>
<defs>
<clipPath id="clip0_36_19">
<rect width="200" height="200" fill="white"/>
</clipPath>
</defs>
</svg>
