<svg width="200" height="200" viewBox="0 0 200 200" fill="none" xmlns="http://www.w3.org/2000/svg">
<path d="M100.781 8.55078C100.586 8.55078 100.313 8.55078 100.078 8.59766C98.2813 8.92969 96.1328 10.5898 94.7266 14.3828C93.2422 18.1719 92.9297 23.5742 94.2187 29.3594C95.5469 35.0742 98.2812 40 101.328 43.0078C104.297 46.0156 106.992 46.8359 108.789 46.5234C110.664 46.25 112.734 44.5313 114.141 40.7813C115.625 37.0156 116.016 31.5391 114.688 25.8008C113.32 20.0195 110.625 15.1406 107.578 12.1523C105 9.49609 102.617 8.55078 100.781 8.55078ZM145.859 59.1406C141.562 59.2578 136.133 60.3906 130.859 62.6172C124.766 65.2734 120.078 68.8281 117.5 72.1875C114.922 75.4297 114.688 77.8906 115.508 79.3359C116.367 80.7813 118.75 82.1484 123.32 82.3438C127.891 82.6172 134.063 81.4844 140.117 78.9063C146.172 76.2891 150.938 72.6953 153.516 69.4141C156.094 66.1719 156.289 63.6328 155.469 62.1875C154.648 60.7031 152.227 59.4141 147.656 59.2578C147.031 59.1406 146.484 59.1406 145.859 59.1406ZM92.6172 95.4297C90.0391 95.4688 87.6953 95.7813 85.5859 96.3281C80.9766 97.5 78.3203 99.6094 77.4609 102.148C76.4844 104.688 77.4609 107.734 80.5078 111.016C83.7109 114.219 88.9844 117.305 95.5469 119.023C102.07 120.742 108.359 120.703 113.047 119.453C117.773 118.242 120.43 116.094 121.289 113.594C122.187 111.055 121.289 108.047 118.125 104.727C115.039 101.523 109.766 98.4375 103.203 96.7578C99.4922 95.7812 95.8594 95.3906 92.6172 95.4297ZM155.391 118.125L131.25 129.57C132.891 129.648 136.992 129.766 136.992 129.766L139.57 133.164L160.938 122.031L155.391 118.125ZM134.102 118.164L111.68 128.789C113.828 128.906 118.906 128.984 120.938 129.102L140.391 119.883L134.102 118.164ZM170.273 122.383L142.734 136.992L148.398 144.297L177.5 126.875L170.273 122.383ZM61.3672 125.938C60.1844 125.935 59.0051 126.066 57.8516 126.328C29.9219 132.773 13.4375 133.32 8.55469 133.32H7.03125V175.312C7.03125 175.312 11.5625 174.648 19.1016 174.609C33.6719 174.609 59.3359 177.109 84.3359 191.719C85.6641 192.539 88.5156 192.852 92.0703 192.852C101.562 192.852 115.977 190.586 119.297 189.336C152.734 176.797 192.969 142.383 192.969 142.383L180.273 131.289C180.273 131.289 149.102 151.172 145.156 153.086C109.57 170.547 80.7422 159.648 80.7422 159.648C80.7422 159.648 127.578 160.82 142.617 148.984L133.789 135.703C133.789 135.703 101.445 134.805 89.9219 133.281C83.9062 132.5 70.8984 125.938 61.3672 125.938Z" fill="white"/>
</svg>
