<svg width="200" height="200" viewBox="0 0 200 200" fill="none" xmlns="http://www.w3.org/2000/svg">
<g clip-path="url(#clip0_37_46)">
<path d="M158.333 116.667V49.9999C158.333 40.8333 150.833 33.3333 141.667 33.3333H25C15.8333 33.3333 8.33331 40.8333 8.33331 49.9999V116.667C8.33331 125.833 15.8333 133.333 25 133.333H141.667C150.833 133.333 158.333 125.833 158.333 116.667ZM83.3333 108.333C69.5 108.333 58.3333 97.1666 58.3333 83.3333C58.3333 69.4999 69.5 58.3333 83.3333 58.3333C97.1666 58.3333 108.333 69.4999 108.333 83.3333C108.333 97.1666 97.1666 108.333 83.3333 108.333ZM191.667 58.3333V150C191.667 159.167 184.167 166.667 175 166.667H33.3333V150H175V58.3333H191.667Z" fill="white"/>
</g>
<defs>
<clipPath id="clip0_37_46">
<rect width="200" height="200" fill="white"/>
</clipPath>
</defs>
</svg>
