<svg width="200" height="200" viewBox="0 0 200 200" fill="none" xmlns="http://www.w3.org/2000/svg">
<path d="M100 116.667V183.333H33.3333C33.3333 146.514 63.181 116.667 100 116.667ZM150 179.167L125.509 192.042L130.187 164.771L110.373 145.457L137.754 141.479L150 116.667L162.246 141.479L189.628 145.457L169.813 164.771L174.491 192.042L150 179.167ZM100 108.333C72.375 108.333 50 85.9582 50 58.3333C50 30.7083 72.375 8.33325 100 8.33325C127.625 8.33325 150 30.7083 150 58.3333C150 85.9582 127.625 108.333 100 108.333Z" fill="white"/>
</svg>
