<svg width="200" height="200" viewBox="0 0 200 200" fill="none" xmlns="http://www.w3.org/2000/svg">
<path d="M31.5256 23.5498L100 8.33325L168.474 23.5498C172.287 24.3971 175 27.7788 175 31.6847V114.907C175 131.625 166.645 147.237 152.735 156.51L100 191.667L47.265 156.51C33.3551 147.237 25 131.625 25 114.907V31.6847C25 27.7788 27.7128 24.3971 31.5256 23.5498ZM100 112.5L124.491 125.376L119.813 98.1041L139.628 78.7909L112.246 74.8121L100 49.9999L87.7542 74.8121L60.3727 78.7909L80.1863 98.1041L75.5089 125.376L100 112.5Z" fill="white"/>
</svg>
