<svg width="200" height="200" viewBox="0 0 200 200" fill="none" xmlns="http://www.w3.org/2000/svg">
<path d="M118.103 11.1382C117.171 11.6671 116.41 12.5042 115.653 13.9437C114.741 15.6772 113.981 18.1765 113.332 21.0882C112.037 26.9124 111.18 34.3022 108.607 41.1116L108.396 41.6702L108.012 42.1272C87.1887 66.9671 72.0473 80.5491 61.5223 100.259L60.5613 102.058L58.5223 102.116C58.5223 102.116 54.3699 102.242 49.6914 103.077C45.0125 103.912 32.8066 104.373 31.6711 105.818C26.4641 112.447 22.4992 123.693 21.8773 133.342C21.2555 142.989 23.3898 152.477 28.3914 158.954C28.7266 159.388 39.9266 160.739 43.3211 161.025C46.7168 161.31 49.7742 161.089 49.7742 161.089L52.1492 160.91L53.1953 163.051C58.9883 174.896 77.2016 182.814 96.5301 188.854C98.2426 188.951 101.203 188.143 104.675 186.395C96.934 183.438 90.859 180.914 84.1676 177.376L82.4398 176.463L82.3043 174.514C81.9543 169.508 84.5199 165.423 87.6207 162.695C88.6129 161.821 89.6676 161.048 90.7398 160.337C90.1383 160.069 89.5391 159.798 88.9352 159.535L87.1 158.734L86.852 156.747C86.1676 151.263 87.8543 145.85 91.4082 142.01C92.1316 141.228 92.9441 140.521 93.8262 139.898L93.7363 139.859L93.5652 137.785C93.0523 131.602 96.9715 126.285 101.493 122.543C102.325 121.854 103.191 121.199 104.08 120.596L103.725 119.757C101.971 115.613 102.812 111.247 104.9 108.11C106.99 104.973 110.118 102.775 113.463 101.551L113.554 101.518L113.646 101.489C120.152 99.5057 126.386 101.096 132.3 102.673C138.214 104.249 143.957 105.884 149.933 105.377C153.561 111.433 153.095 110.269 154.031 112.087L150.529 112.383C142.944 113.027 136.279 111.01 130.489 109.467C124.743 107.935 120.008 106.945 115.796 108.192C113.791 108.947 111.807 110.424 110.754 112.008C109.914 113.268 109.558 114.422 109.84 115.817C118.343 119.437 124.83 123.374 132.121 125.503C139.81 127.748 148.719 128.261 163.108 124.318C165.396 123.208 167.645 121.319 168.973 119.261C170.341 117.141 170.784 115.102 170.094 113.011C167.588 105.421 164.155 98.6811 157.192 94.0597C141.507 87.535 131.427 87.4847 117.632 88.8503C117.387 86.8132 117.461 84.6925 117.64 81.7839C118.447 75.8647 121.095 68.5636 124.181 60.262C128.006 49.9722 132.655 38.7163 136.063 29.4448C135.265 21.7144 133.087 17.3862 130.186 14.8745C127.336 12.4077 123.327 11.3374 118.103 11.1382ZM112.427 124.692C110.662 125.122 108.149 126.161 105.977 127.959C103.335 130.146 101.418 133.032 100.794 135.377C110.395 139.861 117.626 144.339 129.946 148.301L156.087 146.819C160.773 145.178 163.814 143.49 165.489 142.055C167.216 140.574 167.557 139.596 167.618 138.629C167.722 137.008 166.122 134.289 163.759 131.43C149.105 135.271 138.79 134.774 130.152 132.252C123.657 130.355 118.229 127.476 112.427 124.692ZM102.506 143.993C100.014 144.069 98.0973 145.135 96.5688 146.786C94.9008 148.589 93.8918 151.21 93.7992 154.008C102.906 158.061 111.409 162.264 122.975 165.886L145.061 165.458C153.601 165.106 155.916 161.634 156.357 158.484C156.591 156.812 156.164 155.162 155.298 153.906L129.021 155.396L128.408 155.203C117.232 151.673 110.027 147.744 102.523 143.992H102.506L102.506 143.993ZM98.6156 163.89C96.2172 165.192 93.9074 166.528 92.2648 167.973C90.7004 169.349 89.7633 170.578 89.4379 172.149C96.2332 175.596 102.693 178.15 111.854 181.587L130.022 182.21C133.153 180.872 135.022 179.597 135.913 178.652C136.866 177.64 136.943 177.169 136.93 176.358C136.916 175.53 136.405 174.243 135.758 172.671L121.929 172.939L121.388 172.772C112.451 170.01 105.309 166.917 98.616 163.889L98.6156 163.89Z" fill="white"/>
</svg>
